<?xml version="1.0" encoding="UTF-8"?>
<svg xmlns="http://www.w3.org/2000/svg" xmlns:xlink="http://www.w3.org/1999/xlink" width="810pt" height="809.999993pt" viewBox="0 0 810 809.999993" version="1.2">
  <defs>
    <clipPath id="clip1">
      <path d="M 150 201 L 238 201 L 238 565.085938 L 150 565.085938 Z M 150 201 " />
    </clipPath>
    <clipPath id="clip2">
      <path d="M 568 201 L 656.582031 201 L 656.582031 565.085938 L 568 565.085938 Z M 568 201 " />
    </clipPath>
    <clipPath id="clip3">
      <path d="M 129.867188 227 L 401.539062 227 L 401.539062 546.796875 L 129.867188 546.796875 Z M 129.867188 227 " />
    </clipPath>
    <clipPath id="clip4">
      <path d="M 408.027344 227 L 679.695312 227 L 679.695312 546.796875 L 408.027344 546.796875 Z M 408.027344 227 " />
    </clipPath>
    <clipPath id="clip5">
      <path d="M 266 484.929688 L 544.214844 484.929688 L 544.214844 624.078125 L 266 624.078125 Z M 266 484.929688 " />
    </clipPath>
  </defs>
  <g id="surface1">
    <path style=" stroke:none;fill-rule:nonzero;fill:rgb(92.158508%,92.158508%,92.158508%);fill-opacity:1;" d="M 403.082031 406.949219 C 390.039062 406.949219 379.367188 396.277344 379.367188 383.230469 C 379.367188 370.183594 390.039062 359.511719 403.082031 359.511719 C 416.125 359.511719 426.796875 370.183594 426.796875 383.230469 C 426.796875 396.277344 416.125 406.949219 403.082031 406.949219 Z M 403.082031 406.949219 " />
    <g clip-path="url(#clip1)" clip-rule="nonzero">
      <path style=" stroke:none;fill-rule:nonzero;fill:rgb(92.158508%,92.158508%,92.158508%);fill-opacity:1;" d="M 229.96875 565.085938 C 227.992188 565.085938 226.015625 564.296875 224.4375 562.714844 C 176.613281 514.878906 150.132812 451.230469 150.132812 383.230469 C 150.132812 315.234375 176.613281 251.585938 224.042969 203.75 C 227.203125 200.585938 231.945312 200.585938 235.109375 203.75 C 238.269531 206.910156 238.269531 212.050781 235.109375 214.816406 C 190.445312 259.886719 165.941406 319.582031 165.941406 383.230469 C 165.941406 446.878906 190.445312 506.574219 235.503906 551.644531 C 238.664062 554.808594 238.664062 559.945312 235.503906 562.714844 C 233.921875 564.296875 231.945312 565.085938 229.96875 565.085938 Z M 229.96875 565.085938 " />
    </g>
    <g clip-path="url(#clip2)" clip-rule="nonzero">
      <path style=" stroke:none;fill-rule:nonzero;fill:rgb(92.158508%,92.158508%,92.158508%);fill-opacity:1;" d="M 576.195312 565.085938 C 574.21875 565.085938 572.242188 564.296875 570.660156 562.714844 C 567.5 559.550781 567.5 554.410156 570.660156 551.644531 C 615.71875 506.574219 640.222656 446.878906 640.222656 383.230469 C 640.222656 319.582031 615.71875 259.886719 570.660156 214.816406 C 567.5 211.65625 567.5 206.515625 570.660156 203.75 C 573.824219 200.585938 578.566406 200.585938 581.726562 203.75 C 629.550781 251.585938 656.03125 315.234375 656.03125 383.230469 C 656.03125 451.230469 629.550781 514.878906 582.121094 562.714844 C 580.542969 564.296875 578.566406 565.085938 576.195312 565.085938 Z M 576.195312 565.085938 " />
    </g>
    <path style=" stroke:none;fill-rule:nonzero;fill:rgb(92.158508%,92.158508%,92.158508%);fill-opacity:1;" d="M 542.996094 529.503906 C 541.414062 529.503906 539.832031 529.109375 538.648438 527.925781 C 536.277344 525.550781 536.277344 521.992188 538.648438 519.621094 C 575.007812 483.25 594.769531 435.019531 594.769531 383.625 C 594.769531 332.234375 575.007812 284 538.648438 247.628906 C 536.277344 245.257812 536.277344 241.699219 538.648438 239.328125 C 541.019531 236.957031 544.574219 236.957031 546.945312 239.328125 C 585.285156 278.070312 606.625 329.070312 606.625 383.625 C 606.625 438.183594 585.285156 489.578125 546.945312 527.925781 C 545.761719 528.714844 544.179688 529.503906 542.996094 529.503906 Z M 542.996094 529.503906 " />
    <path style=" stroke:none;fill-rule:nonzero;fill:rgb(92.158508%,92.158508%,92.158508%);fill-opacity:1;" d="M 263.167969 529.503906 C 261.589844 529.503906 260.007812 529.109375 258.820312 527.925781 C 220.878906 489.179688 199.535156 437.789062 199.535156 383.230469 C 199.535156 328.675781 220.878906 277.28125 259.21875 238.933594 C 261.589844 236.5625 265.144531 236.5625 267.515625 238.933594 C 269.886719 241.304688 269.886719 244.863281 267.515625 247.234375 C 231.15625 283.605469 211.394531 331.835938 211.394531 383.230469 C 211.394531 434.625 231.15625 482.855469 267.515625 519.226562 C 269.886719 521.597656 269.886719 525.15625 267.515625 527.527344 C 266.332031 528.714844 264.75 529.503906 263.167969 529.503906 Z M 263.167969 529.503906 " />
    <path style=" stroke:none;fill-rule:nonzero;fill:rgb(92.158508%,92.158508%,92.158508%);fill-opacity:1;" d="M 509.792969 494.320312 C 508.609375 494.320312 507.820312 493.925781 507.027344 493.132812 C 505.445312 491.554688 505.445312 489.179688 507.027344 487.601562 C 534.695312 459.53125 550.109375 422.765625 550.109375 383.230469 C 550.109375 343.699219 534.695312 306.535156 507.027344 278.863281 C 505.445312 277.28125 505.445312 274.910156 507.027344 273.328125 C 508.609375 271.746094 510.980469 271.746094 512.5625 273.328125 C 541.808594 302.582031 558.011719 341.71875 558.011719 383.625 C 558.011719 425.53125 541.808594 464.273438 512.5625 493.925781 C 512.167969 493.925781 510.980469 494.320312 509.792969 494.320312 Z M 509.792969 494.320312 " />
    <path style=" stroke:none;fill-rule:nonzero;fill:rgb(92.158508%,92.158508%,92.158508%);fill-opacity:1;" d="M 296.367188 494.320312 C 295.183594 494.320312 294.394531 493.925781 293.601562 493.132812 C 263.960938 463.878906 248.152344 424.742188 248.152344 383.230469 C 248.152344 341.71875 264.355469 302.582031 293.601562 272.933594 C 295.183594 271.351562 297.554688 271.351562 299.136719 272.933594 C 300.714844 274.511719 300.714844 276.886719 299.136719 278.46875 C 271.074219 306.535156 256.054688 343.699219 256.054688 383.230469 C 256.054688 422.765625 271.46875 459.925781 299.136719 487.601562 C 300.714844 489.179688 300.714844 491.554688 299.136719 493.132812 C 298.34375 493.925781 297.160156 494.320312 296.367188 494.320312 Z M 296.367188 494.320312 " />
    <path style=" stroke:none;fill-rule:nonzero;fill:rgb(92.158508%,92.158508%,92.158508%);fill-opacity:1;" d="M 403.082031 486.414062 C 346.5625 486.414062 300.320312 440.160156 300.320312 383.230469 C 300.320312 326.300781 346.5625 280.046875 403.082031 280.046875 C 459.601562 280.046875 505.84375 326.300781 505.84375 383.230469 C 505.84375 440.160156 459.601562 486.414062 403.082031 486.414062 Z M 403.082031 295.863281 C 355.257812 295.863281 316.128906 335 316.128906 383.230469 C 316.128906 431.460938 355.257812 470.601562 403.082031 470.601562 C 450.90625 470.601562 490.03125 431.460938 490.03125 383.230469 C 490.03125 335 450.90625 295.863281 403.082031 295.863281 Z M 403.082031 295.863281 " />
    <g clip-path="url(#clip3)" clip-rule="nonzero">
      <path style=" stroke:none;fill-rule:nonzero;fill:rgb(0%,0%,0%);fill-opacity:1;" d="M 404.578125 228.707031 C 334.628906 242.375 272.496094 265.386719 256.296875 351.652344 C 294.605469 336.078125 326.371094 341.292969 357.820312 374.601562 C 328.59375 375.9375 305.085938 377.019531 272.75 378.480469 C 318.367188 388.015625 335.074219 420.628906 356.484375 446.757812 C 368.046875 460.871094 378.910156 466.273438 396.191406 464.492188 C 420.144531 461.949219 443.203125 465.191406 467.21875 470.851562 C 499.9375 478.605469 535.132812 473.074219 565.375 458.261719 C 616.898438 433.023438 666.960938 429.019531 717.851562 456.609375 C 735.003906 465.890625 749.933594 470.46875 769.882812 461.570312 C 791.039062 452.222656 813.589844 461.503906 833.09375 471.105469 C 851.136719 479.941406 849.105469 504.480469 829.285156 540.015625 C 807.109375 521.199219 791.480469 495.386719 762.003906 482.546875 C 779.539062 506.070312 782.90625 532.070312 781.382812 559.914062 C 779.601562 595.132812 773.695312 627.171875 750.25 656.222656 C 730.875 680.316406 711.496094 708.351562 738.878906 740.902344 C 744.40625 747.511719 737.671875 754.886719 737.355469 762.007812 C 736.589844 778.726562 730.238281 798.304688 740.46875 811.335938 C 762.765625 839.753906 744.914062 863.972656 735.257812 887.6875 C 729.601562 901.609375 709.71875 896.394531 699.042969 892.390625 C 684.8125 887.050781 697.203125 875.097656 701.96875 870.457031 C 743.898438 829.964844 726.046875 787.179688 704.445312 747.320312 C 681.320312 704.726562 659.335938 662.515625 651.90625 607.148438 C 647.140625 625.582031 646.441406 637.789062 651.394531 648.785156 C 663.023438 674.722656 648.664062 681.269531 627.253906 685.53125 C 575.539062 695.765625 523.445312 699.769531 470.777344 698.054688 C 442.1875 697.164062 414.234375 697.417969 419.125 654.445312 C 414.871094 707.335938 401.210938 758.066406 417.472656 809.746094 C 424.527344 832.316406 408.707031 854.566406 412.265625 879.675781 C 414.105469 892.582031 386.40625 883.492188 372.238281 886.289062 C 371.796875 882.726562 370.460938 879.738281 371.351562 878.785156 C 427.320312 816.613281 375.035156 760.035156 362.394531 701.421875 C 306.804688 670.78125 314.234375 606.765625 288.316406 560.292969 C 272.179688 531.433594 261.949219 499.140625 236.09375 468.433594 C 229.738281 500.601562 221.542969 526.792969 196.894531 546.5 C 191.367188 527.808594 199.878906 512.425781 200.578125 496.660156 C 201.277344 481.148438 197.59375 475.9375 180.695312 481.277344 C 165.320312 486.105469 145.371094 501.554688 133.746094 477.714844 C 123.644531 456.992188 134.507812 437.539062 151.277344 425.140625 C 197.65625 390.75 230.882812 349.683594 254.644531 294.695312 C 280.691406 234.238281 341.808594 222.984375 404.578125 228.707031 " />
    </g>
    <path style=" stroke:none;fill-rule:nonzero;fill:rgb(0%,0%,0%);fill-opacity:1;" d="M 220.78125 334.933594 C 222.433594 265.769531 262.394531 221.714844 334.121094 203.535156 C 311.1875 219.300781 287.871094 234.554688 268.621094 254.960938 C 249.117188 275.621094 235.394531 299.90625 220.78125 334.933594 " />
    <g clip-path="url(#clip4)" clip-rule="nonzero">
      <path style=" stroke:none;fill-rule:nonzero;fill:rgb(0%,0%,0%);fill-opacity:1;" d="M 405.398438 228.707031 C 475.347656 242.375 537.480469 265.386719 553.683594 351.652344 C 515.371094 336.078125 483.605469 341.292969 452.160156 374.601562 C 481.382812 375.9375 504.890625 377.019531 537.226562 378.480469 C 491.613281 388.015625 474.902344 420.628906 453.492188 446.757812 C 441.929688 460.871094 431.066406 466.273438 413.785156 464.492188 C 389.835938 461.949219 366.773438 465.191406 342.757812 470.851562 C 310.039062 478.605469 274.84375 473.074219 244.601562 458.261719 C 193.078125 433.023438 143.015625 429.019531 92.128906 456.609375 C 74.972656 465.890625 60.042969 470.46875 40.097656 461.570312 C 18.941406 452.222656 -3.613281 461.503906 -23.117188 471.105469 C -41.160156 479.941406 -39.128906 504.480469 -19.304688 540.015625 C 2.867188 521.199219 18.496094 495.386719 47.972656 482.546875 C 30.4375 506.070312 27.070312 532.070312 28.597656 559.914062 C 30.375 595.132812 36.285156 627.171875 59.726562 656.222656 C 79.105469 680.316406 98.480469 708.351562 71.097656 740.902344 C 65.570312 747.511719 72.304688 754.886719 72.625 762.007812 C 73.386719 778.726562 79.738281 798.304688 69.511719 811.335938 C 47.210938 839.753906 65.0625 863.972656 74.71875 887.6875 C 80.375 901.609375 100.261719 896.394531 110.933594 892.390625 C 125.164062 887.050781 112.777344 875.097656 108.011719 870.457031 C 66.082031 829.964844 83.933594 787.179688 105.53125 747.320312 C 128.660156 704.726562 150.640625 662.515625 158.074219 607.148438 C 162.839844 625.582031 163.535156 637.789062 158.582031 648.785156 C 146.957031 674.722656 161.3125 681.269531 182.722656 685.53125 C 234.4375 695.765625 286.535156 699.769531 339.199219 698.054688 C 367.789062 697.164062 395.742188 697.417969 390.851562 654.445312 C 395.109375 707.335938 408.765625 758.066406 392.503906 809.746094 C 385.453125 832.316406 401.269531 854.566406 397.710938 879.675781 C 395.871094 892.582031 423.570312 883.492188 437.738281 886.289062 C 438.183594 882.726562 439.515625 879.738281 438.625 878.785156 C 382.65625 816.613281 434.941406 760.035156 447.585938 701.421875 C 503.175781 670.78125 495.742188 606.765625 521.660156 560.292969 C 537.800781 531.433594 548.027344 499.140625 573.882812 468.433594 C 580.238281 500.601562 588.433594 526.792969 613.082031 546.5 C 618.609375 527.808594 610.097656 512.425781 609.398438 496.660156 C 608.699219 481.148438 612.382812 475.9375 629.285156 481.277344 C 644.660156 486.105469 664.605469 501.554688 676.234375 477.714844 C 686.335938 456.992188 675.472656 437.539062 658.699219 425.140625 C 612.320312 390.75 579.09375 349.683594 555.332031 294.695312 C 529.285156 234.238281 468.167969 222.984375 405.398438 228.707031 " />
    </g>
    <path style=" stroke:none;fill-rule:nonzero;fill:rgb(0%,0%,0%);fill-opacity:1;" d="M 589.195312 334.933594 C 587.542969 265.769531 547.582031 221.714844 475.855469 203.535156 C 498.789062 219.300781 522.105469 234.554688 541.355469 254.960938 C 560.859375 275.621094 574.582031 299.90625 589.195312 334.933594 " />
    <path style=" stroke:none;fill-rule:nonzero;fill:rgb(0%,0%,0%);fill-opacity:1;" d="M 366.335938 460.851562 L 443.820312 460.851562 L 443.820312 547.058594 L 366.335938 547.058594 Z M 366.335938 460.851562 " />
    <g clip-path="url(#clip5)" clip-rule="nonzero">
      <path style=" stroke:none;fill-rule:nonzero;fill:rgb(0%,0%,0%);fill-opacity:1;" d="M 544.097656 484.929688 C 544.097656 561.789062 481.8125 624.078125 404.953125 624.078125 C 328.089844 624.078125 266.039062 561.789062 266.039062 484.929688 Z M 544.097656 484.929688 " />
    </g>
  </g>
</svg>
