<svg id="Layer_1" data-name="Layer 1" xmlns="http://www.w3.org/2000/svg" xmlns:xlink="http://www.w3.org/1999/xlink" viewBox="0 0 375 375"><defs><style>.cls-1{fill:none;}.cls-2{fill:#fff;}.cls-3{clip-path:url(#clip-path);}.cls-4{fill:#ffc966;}.cls-5{clip-path:url(#clip-path-2);}</style><clipPath id="clip-path"><rect class="cls-1" width="187.5" height="375"/></clipPath><clipPath id="clip-path-2"><rect class="cls-1" x="21.2" y="141.58" width="91.5" height="91.42"/></clipPath></defs><title>chat</title><g id="surface1"><rect class="cls-2" width="375" height="375"/><rect class="cls-2" width="375" height="375"/><g class="cls-3"><path class="cls-4" d="M0,.16a187.48,187.48,0,0,1,187.5,187.5c0,103.57-83.93,187.18-187.5,187.18Z"/></g><g class="cls-5"><path class="cls-2" d="M67.18,141.75c-25.14,0-45.52,18.68-45.52,41.73a39.2,39.2,0,0,0,8.51,24.23L22,227.55A3.77,3.77,0,0,0,24,232.5a3.7,3.7,0,0,0,2.9,0l24.21-10a49,49,0,0,0,16.07,2.73c25.15,0,45.52-18.69,45.52-41.73S92.33,141.75,67.18,141.75Zm-19,47.42a5.69,5.69,0,1,1,5.69-5.69A5.69,5.69,0,0,1,48.21,189.17Zm19,0a5.69,5.69,0,1,1,5.69-5.69A5.69,5.69,0,0,1,67.18,189.17Zm19,0a5.69,5.69,0,1,1,5.69-5.69A5.69,5.69,0,0,1,86.15,189.17Z"/></g></g></svg>